<svg id="Layer_2" data-name="Layer 2" xmlns="http://www.w3.org/2000/svg" width="60" height="60" viewBox="0 0 60 60">
  <g id="briefcase">
    <rect id="Rectángulo_1451" data-name="Rectángulo 1451" width="60" height="60" fill="#5640ff" opacity="0"/>
    <path id="Trazado_7157" data-name="Trazado 7157" d="M44.5,13H37V9.25A6.25,6.25,0,0,0,30.75,3h-7.5A6.25,6.25,0,0,0,17,9.25V13H9.5A7.5,7.5,0,0,0,2,20.5v20A7.5,7.5,0,0,0,9.5,48h35A7.5,7.5,0,0,0,52,40.5v-20A7.5,7.5,0,0,0,44.5,13Zm-10,5V43h-15V18ZM22,9.25A1.25,1.25,0,0,1,23.25,8h7.5A1.25,1.25,0,0,1,32,9.25V13H22ZM7,40.5v-20A2.5,2.5,0,0,1,9.5,18h5V43h-5A2.5,2.5,0,0,1,7,40.5Zm40,0A2.5,2.5,0,0,1,44.5,43h-5V18h5A2.5,2.5,0,0,1,47,20.5Z" transform="translate(3 4.5)" fill="#5640ff"/>
  </g>
</svg>
