<svg id="Layer_2" data-name="Layer 2" xmlns="http://www.w3.org/2000/svg" width="60" height="60" viewBox="0 0 60 60">
  <g id="people">
    <rect id="Rectángulo_1591" data-name="Rectángulo 1591" width="60" height="60" fill="#5640ff" opacity="0"/>
    <path id="Trazado_7378" data-name="Trazado 7378" d="M15,23A10,10,0,1,0,5,13,10,10,0,0,0,15,23ZM15,8a5,5,0,1,1-5,5A5,5,0,0,1,15,8Z" transform="translate(7.5 4.5)" fill="#5640ff"/>
    <path id="Trazado_7379" data-name="Trazado 7379" d="M21.5,22A7.5,7.5,0,1,0,14,14.5,7.5,7.5,0,0,0,21.5,22Zm0-10A2.5,2.5,0,1,1,19,14.5,2.5,2.5,0,0,1,21.5,12Z" transform="translate(21 10.5)" fill="#5640ff"/>
    <path id="Trazado_7380" data-name="Trazado 7380" d="M39.5,15.486a12.5,12.5,0,0,0-7.65,2.625A17.5,17.5,0,0,0,2,30.486a2.5,2.5,0,1,0,5,0,12.5,12.5,0,0,1,25,0,2.5,2.5,0,0,0,5,0,17.25,17.25,0,0,0-2.15-8.375A7.5,7.5,0,0,1,47,27.986a2.5,2.5,0,1,0,5,0A12.5,12.5,0,0,0,39.5,15.486Z" transform="translate(3 19.514)" fill="#5640ff"/>
  </g>
</svg>
