<svg id="Boton_secundario" data-name="Boton secundario" xmlns="http://www.w3.org/2000/svg" width="133" height="50" viewBox="0 0 133 50">
  <rect id="Rectángulo_5345" data-name="Rectángulo 5345" width="133" height="50" rx="25" fill="#ff1558"/>
  <text id="Inscríbete" transform="translate(47 30)" fill="#fff" font-size="14" font-family="Poppins-Bold, Poppins" font-weight="700"><tspan x="0" y="0">Inscríbete</tspan></text>
  <g id="Layer_2" data-name="Layer 2" transform="translate(13 13)">
    <g id="edit">
      <rect id="Rectángulo_1505" data-name="Rectángulo 1505" width="24" height="24" fill="#fff" opacity="0"/>
      <path id="Trazado_7248" data-name="Trazado 7248" d="M19.4,7.34,16.66,4.6A2,2,0,0,0,14,4.53l-9,9a2,2,0,0,0-.57,1.21L4,18.91A1,1,0,0,0,5,20h.09l4.17-.38a2,2,0,0,0,1.21-.57l9-9a1.92,1.92,0,0,0-.07-2.71ZM9.08,17.62l-3,.28.27-3L12,9.32l2.7,2.7ZM16,10.68,13.32,8l1.95-2L18,8.73Z" fill="#fff"/>
    </g>
  </g>
</svg>
