<svg xmlns="http://www.w3.org/2000/svg" xmlns:xlink="http://www.w3.org/1999/xlink" width="68" height="68" viewBox="0 0 68 68">
  <defs>
    <filter id="Rect치ngulo_3599" x="0" y="0" width="68" height="68" filterUnits="userSpaceOnUse">
      <feOffset dy="3" input="SourceAlpha"/>
      <feGaussianBlur stdDeviation="3" result="blur"/>
      <feFlood flood-opacity="0.161"/>
      <feComposite operator="in" in2="blur"/>
      <feComposite in="SourceGraphic"/>
    </filter>
    <filter id="Trazado_889" x="17.956" y="15.956" width="31.878" height="32.087" filterUnits="userSpaceOnUse">
      <feOffset dy="1" input="SourceAlpha"/>
      <feGaussianBlur stdDeviation="1" result="blur-2"/>
      <feFlood flood-opacity="0.161"/>
      <feComposite operator="in" in2="blur-2"/>
      <feComposite in="SourceGraphic"/>
    </filter>
  </defs>
  <g id="Grupo_17718" data-name="Grupo 17718" transform="translate(-1036 -704)">
    <g transform="matrix(1, 0, 0, 1, 1036, 704)" filter="url(#Rect치ngulo_3599)">
      <rect id="Rect치ngulo_3599-2" data-name="Rect치ngulo 3599" width="50" height="50" rx="25" transform="translate(9 6)" fill="#00d56b"/>
    </g>
    <g id="Grupo_9588" data-name="Grupo 9588" transform="translate(1056.956 721.956)">
      <g id="Grupo_9587" data-name="Grupo 9587" transform="translate(0 0)">
        <path id="Trazado_937" data-name="Trazado 937" d="M11.686,0a11.627,11.627,0,0,1,0,23.254c-3.114,0-7.84.663-10.119-1.518C-.458,19.806.059,14.934.059,11.627A11.627,11.627,0,0,1,11.686,0Z" transform="translate(1.717 1.279)" fill="#00d56b"/>
        <g transform="matrix(1, 0, 0, 1, -20.96, -17.96)" filter="url(#Trazado_889)">
          <path id="Trazado_889-2" data-name="Trazado 889" d="M12.306.015a12.943,12.943,0,0,0-10.9,18.8L.035,25.481a.5.5,0,0,0,.609.592l6.534-1.548A12.939,12.939,0,1,0,12.306.015ZM20.1,20.1A10.138,10.138,0,0,1,8.43,22.012l-.91-.453-4.006.949.843-4.093-.448-.878A10.139,10.139,0,0,1,5.775,5.775,10.131,10.131,0,1,1,20.1,20.1Z" transform="translate(20.96 17.96)" fill="#fff"/>
        </g>
        <path id="Trazado_890" data-name="Trazado 890" d="M12.3,9.426,9.89,8.676A.85.85,0,0,0,9,8.93l-.589.651a.829.829,0,0,1-.954.218A13.253,13.253,0,0,1,3.311,5.832a1.018,1.018,0,0,1,.069-1.055l.514-.722a1.042,1.042,0,0,0,.111-.989L2.992.58A.865.865,0,0,0,1.59.232,4.437,4.437,0,0,0,.024,2.824c-.171,1.83.553,4.138,3.289,6.909,3.161,3.2,5.693,3.624,7.341,3.191a4.171,4.171,0,0,0,2.153-2.037A1,1,0,0,0,12.3,9.426Z" transform="translate(6.693 6.438)" fill="#fff"/>
      </g>
    </g>
  </g>
</svg>
