<svg id="Grupo_9442" data-name="Grupo 9442" xmlns="http://www.w3.org/2000/svg" width="26.442" height="26.442" viewBox="0 0 26.442 26.442">
  <g id="Grupo_8994" data-name="Grupo 8994" transform="translate(0 0)">
    <path id="Trazado_5015" data-name="Trazado 5015" d="M206.5,168.271c0,.656-.426.968-1.172.968h-1.425v-.657h1.425a.436.436,0,0,0,.287-.069.287.287,0,0,0,.092-.2.3.3,0,0,0-.092-.219.365.365,0,0,0-.264-.069c-.678-.023-1.54.023-1.54-.956a.928.928,0,0,1,1.057-.922h1.471v.657h-1.356a.479.479,0,0,0-.287.046.324.324,0,0,0-.115.242.23.23,0,0,0,.149.219,1.162,1.162,0,0,0,.288.046h.4a1.306,1.306,0,0,1,.862.242,1.009,1.009,0,0,1,.218.668m-3.1-.668a1.306,1.306,0,0,0-.862-.242h-.4a1.151,1.151,0,0,1-.287-.046.23.23,0,0,1-.15-.219.263.263,0,0,1,.115-.242.479.479,0,0,1,.287-.046h1.356v-.657h-1.471c-.793,0-1.057.484-1.057.922,0,.979.862.933,1.54.956a.365.365,0,0,1,.264.069.3.3,0,0,1,.092.219.289.289,0,0,1-.092.2.482.482,0,0,1-.287.069h-1.425v.657h1.425c.747,0,1.172-.311,1.172-.968a1.011,1.011,0,0,0-.218-.668m-2.827,1h-1.735v-.622h1.7v-.622h-1.7V166.8h1.735v-.645h-2.459v3.088h2.459Zm-3.252-2.3a1.925,1.925,0,0,0-.908-.15h-1.689v3.088h.747V168.11h.793c.264,0,.414.023.529.138a1.018,1.018,0,0,1,.126.622v.369h.736v-.6a.962.962,0,0,0-.115-.564.763.763,0,0,0-.379-.265.846.846,0,0,0,.529-.818.7.7,0,0,0-.368-.691m-4.183-.15h-2.356l-.954,1.014-.9-1.014h-2.976v3.088h2.93l.943-1.014.908,1.014h1.425V168.2h.931c.632,0,1.276-.173,1.276-1.037,0-.841-.655-1.014-1.23-1.014m3.586,1.279a.887.887,0,0,1-.356.046l-.9.023v-.7h.9a.688.688,0,0,1,.356.057.28.28,0,0,1,.149.265.371.371,0,0,1-.149.311m-3.586.15h-.977V166.8h.977c.265,0,.437.1.437.369a.393.393,0,0,1-.437.415m-2.838.115,1.138-1.21v2.489Zm-1.793.91H186.68v-.622h1.632v-.622H186.68V166.8h1.85l.816.9Zm15.95-4.689H203.4L202.01,161.6v2.316h-1.494l-.288-.68h-1.54l-.287.68h-.862a1.582,1.582,0,0,1-1.08-.346,2.014,2.014,0,0,1,.023-2.385,1.5,1.5,0,0,1,1.126-.357h.7v.668h-.7a.8.8,0,0,0-.575.173.99.99,0,0,0-.2.7,1.111,1.111,0,0,0,.2.737.759.759,0,0,0,.506.15h.333l1.057-2.431h1.091l1.241,2.915v-2.915H202.4l1.3,2.143v-2.143h.759Zm-8.745-3.088h-.746v3.088h.746Zm-1.563.138a1.706,1.706,0,0,0-.885-.138h-1.689v3.088h.724V162.8h.793a.8.8,0,0,1,.552.127,1,1,0,0,1,.1.6v.392h.758V163.3a.8.8,0,0,0-.138-.553.9.9,0,0,0-.356-.265.873.873,0,0,0,.529-.818.748.748,0,0,0-.391-.7m-3.1,2.316h-1.724v-.622h1.7v-.634h-1.7v-.553h1.724v-.645h-2.471v3.088h2.471Zm-3.023-2.454h-1.206l-.908,2.1-.965-2.1h-1.183v2.915l-1.264-2.915h-1.091l-1.322,3.088h.793l.276-.68H182.7l.276.68h1.505V161.5l1.08,2.419h.632l1.081-2.419v2.419h.746Zm11.94,1.751-.506-1.221-.506,1.221Zm-6.389-.5a.641.641,0,0,1-.368.069H192.3v-.68h.907a.924.924,0,0,1,.368.046.309.309,0,0,1,.138.288.279.279,0,0,1-.138.277m-12.158.5.517-1.221.505,1.221Zm24.9-11.441H180.061v11.13l.9-2.051h1.919l.264.507v-.507h2.241l.506,1.095.494-1.095h7.148a1.252,1.252,0,0,1,.839.242v-.242h1.965v.242a2.5,2.5,0,0,1,1.23-.242H200.4l.264.507v-.507h2.091l.311.507v-.507h2.045v4.321h-2.068l-.4-.657v.657h-2.574l-.287-.7h-.632l-.287.7h-1.345a2.535,2.535,0,0,1-1.183-.265v.265h-3.195v-.991c0-.138-.023-.161-.115-.161h-.1v1.152h-6.171v-.553l-.218.553h-1.3l-.218-.53v.53H182.52l-.264-.7h-.632l-.288.7h-1.275V177.58h26.258v-7.915a2.725,2.725,0,0,1-1.069.2h-1.919V169.6a1.729,1.729,0,0,1-.989.265H196.31v-.991c0-.138-.023-.138-.138-.138h-.1v1.129h-1.988v-1.175a2.325,2.325,0,0,1-1.034.161h-.218v1.014H190.4l-.574-.668-.632.668h-3.9v-4.332h3.964l.563.668.621-.668h2.666a1.661,1.661,0,0,1,1.034.265v-.265h2.379a1.9,1.9,0,0,1,1.011.265v-.265h3.585v.265a1.514,1.514,0,0,1,.908-.265h2v.265a1.629,1.629,0,0,1,.931-.265h1.356Z" transform="translate(-180.061 -151.138)" fill="#008fe3" fill-rule="evenodd"/>
  </g>
</svg>
